<svg width="144" height="144" viewBox="0 0 144 144" fill="none" xmlns="http://www.w3.org/2000/svg">
<g clip-path="url(#clip0_3_28)">
<path d="M40.581 64.587C40.581 66.378 40.773 67.827 41.109 68.892C41.493 69.957 41.97 71.118 42.642 72.375C42.882 72.762 42.978 73.149 42.978 73.488C42.978 73.971 42.69 74.454 42.069 74.94L39.051 76.971C38.619 77.262 38.19 77.406 37.806 77.406C37.326 77.406 36.849 77.163 36.369 76.728C35.697 76.002 35.124 75.228 34.644 74.454C34.164 73.632 33.687 72.714 33.159 71.601C29.424 76.05 24.729 78.276 19.077 78.276C15.054 78.276 11.844 77.115 9.49802 74.793C7.15202 72.471 5.95502 69.375 5.95502 65.505C5.95502 61.395 7.39202 58.056 10.314 55.542C13.236 53.028 17.115 51.768 22.047 51.768C23.676 51.768 25.353 51.912 27.123 52.155C28.893 52.398 30.714 52.785 32.631 53.22V49.689C32.631 46.014 31.866 43.449 30.381 41.949C28.848 40.449 26.262 39.723 22.575 39.723C20.898 39.723 19.176 39.915 17.403 40.353C15.63 40.788 13.908 41.319 12.231 41.997C11.466 42.336 10.89 42.528 10.554 42.627C10.218 42.723 9.97802 42.771 9.78902 42.771C9.11702 42.771 8.78402 42.288 8.78402 41.271V38.901C8.78402 38.127 8.88002 37.548 9.12002 37.209C9.36002 36.87 9.79202 36.531 10.461 36.192C12.138 35.322 14.148 34.596 16.497 34.014C18.843 33.384 21.333 33.096 23.967 33.096C29.667 33.096 33.834 34.401 36.516 37.014C39.15 39.627 40.491 43.593 40.491 48.912V64.584H40.581V64.587ZM21.135 71.937C22.716 71.937 24.345 71.646 26.067 71.067C27.792 70.488 29.325 69.423 30.618 67.971C31.383 67.053 31.959 66.036 32.247 64.875C32.535 63.714 32.727 62.31 32.727 60.666V58.635C31.338 58.296 29.853 58.005 28.32 57.813C26.787 57.621 25.302 57.522 23.817 57.522C20.607 57.522 18.261 58.152 16.68 59.457C15.099 60.762 14.334 62.601 14.334 65.019C14.334 67.293 14.91 68.985 16.107 70.146C17.256 71.358 18.933 71.937 21.135 71.937ZM59.595 77.163C58.734 77.163 58.158 77.019 57.774 76.68C57.39 76.389 57.057 75.714 56.769 74.793L45.513 37.404C45.225 36.438 45.081 35.808 45.081 35.469C45.081 34.695 45.465 34.26 46.23 34.26H50.925C51.834 34.26 52.458 34.404 52.794 34.743C53.178 35.034 53.463 35.709 53.751 36.63L61.797 68.652L69.267 36.63C69.507 35.664 69.795 35.034 70.176 34.743C70.56 34.452 71.229 34.26 72.093 34.26H75.924C76.833 34.26 77.457 34.404 77.841 34.743C78.225 35.034 78.558 35.709 78.75 36.63L86.316 69.039L94.602 36.63C94.89 35.664 95.226 35.034 95.559 34.743C95.943 34.452 96.564 34.26 97.428 34.26H101.883C102.648 34.26 103.08 34.647 103.08 35.469C103.08 35.712 103.032 35.952 102.984 36.243C102.936 36.534 102.84 36.921 102.648 37.452L91.107 74.841C90.819 75.807 90.483 76.437 90.102 76.728C89.721 77.019 89.097 77.211 88.281 77.211H84.162C83.253 77.211 82.629 77.067 82.245 76.728C81.861 76.389 81.528 75.762 81.336 74.793L73.914 43.593L66.54 74.745C66.3 75.711 66.012 76.341 65.631 76.68C65.247 77.019 64.578 77.163 63.714 77.163H59.595ZM121.137 78.468C118.647 78.468 116.157 78.177 113.763 77.598C111.369 77.019 109.5 76.389 108.255 75.663C107.49 75.228 106.962 74.745 106.77 74.31C106.578 73.875 106.482 73.392 106.482 72.957V70.491C106.482 69.474 106.866 68.991 107.583 68.991C107.871 68.991 108.159 69.039 108.444 69.135C108.732 69.231 109.161 69.426 109.641 69.618C111.27 70.344 113.04 70.923 114.909 71.31C116.826 71.697 118.692 71.889 120.609 71.889C123.627 71.889 125.973 71.358 127.602 70.293C129.231 69.228 130.092 67.68 130.092 65.697C130.092 64.344 129.66 63.231 128.799 62.31C127.938 61.392 126.309 60.57 123.963 59.796L117.018 57.618C113.523 56.505 110.937 54.861 109.356 52.683C107.775 50.556 106.962 48.186 106.962 45.669C106.962 43.638 107.394 41.847 108.255 40.299C109.116 38.751 110.268 37.398 111.702 36.333C113.139 35.22 114.768 34.398 116.682 33.819C118.599 33.243 120.609 33 122.718 33C123.771 33 124.872 33.048 125.928 33.192C127.029 33.336 128.034 33.531 129.042 33.723C129.999 33.966 130.911 34.206 131.772 34.497C132.633 34.788 133.305 35.076 133.785 35.367C134.457 35.754 134.934 36.141 135.222 36.576C135.51 36.963 135.654 37.494 135.654 38.172V40.446C135.654 41.463 135.27 41.994 134.553 41.994C134.169 41.994 133.548 41.802 132.732 41.415C130.002 40.158 126.936 39.528 123.537 39.528C120.807 39.528 118.653 39.963 117.168 40.881C115.683 41.799 114.918 43.203 114.918 45.186C114.918 46.539 115.398 47.7 116.355 48.621C117.312 49.539 119.085 50.46 121.623 51.282L128.424 53.46C131.871 54.573 134.364 56.121 135.846 58.104C137.328 60.087 138.048 62.361 138.048 64.875C138.048 66.954 137.616 68.841 136.803 70.485C135.942 72.129 134.79 73.581 133.308 74.742C131.823 75.951 130.05 76.821 127.992 77.451C125.829 78.129 123.579 78.468 121.137 78.468Z" fill="#445D72"/>
<path d="M130.188 101.976C114.432 113.73 91.539 119.97 71.853 119.97C44.268 119.97 19.41 109.668 0.63599 92.544C-0.84901 91.191 0.49199 89.352 2.26499 90.417C22.572 102.315 47.619 109.524 73.53 109.524C91.011 109.524 110.217 105.849 127.887 98.301C130.524 97.092 132.774 100.041 130.188 101.976ZM136.749 94.431C134.736 91.818 123.435 93.174 118.311 93.801C116.778 93.993 116.538 92.64 117.927 91.623C126.93 85.239 141.729 87.075 143.454 89.205C145.179 91.383 142.974 106.329 134.547 113.487C133.254 114.6 132.009 114.018 132.582 112.569C134.499 107.781 138.762 96.993 136.749 94.431Z" fill="#445D72"/>
</g>
<defs>
<clipPath id="clip0_3_28">
<rect width="144" height="144" fill="white"/>
</clipPath>
</defs>
</svg>
