<svg width="154" height="144" viewBox="0 0 154 144" fill="none" xmlns="http://www.w3.org/2000/svg">
<g clip-path="url(#clip0_604_31)">
<path d="M58.0769 18.1092H91.8138L56.7913 122.219C56.6122 122.751 56.3516 123.252 56.0188 123.703C55.6867 124.154 55.2862 124.55 54.8316 124.878C54.3769 125.205 53.8752 125.459 53.3422 125.631C52.8092 125.802 52.2533 125.891 51.6946 125.891H25.4387C24.5864 125.891 23.7456 125.688 22.9873 125.296C22.2283 124.906 21.5731 124.339 21.0761 123.644C20.5787 122.949 20.2534 122.145 20.1269 121.299C20 120.453 20.077 119.588 20.3492 118.778L52.9788 21.7777C53.1569 21.2461 53.4177 20.7459 53.7512 20.2943C54.0833 19.8427 54.4852 19.4469 54.9385 19.1196C55.3931 18.7924 55.8948 18.538 56.4278 18.3665C56.9609 18.195 57.5167 18.1064 58.0754 18.1064V18.1078L58.0769 18.1092Z" fill="url(#paint0_linear_604_31)"/>
<path d="M120.269 125.891H89.9753C89.6375 125.891 89.2997 125.859 88.9662 125.795C88.6341 125.732 88.3077 125.638 87.9928 125.513C87.6778 125.389 87.3756 125.235 87.0892 125.055C86.803 124.873 86.5344 124.666 86.2867 124.434L51.9098 92.2425C51.5462 91.9021 51.293 91.46 51.183 90.9735C51.073 90.487 51.1117 89.9785 51.294 89.5144C51.4762 89.0502 51.7936 88.6518 52.2049 88.3711C52.6168 88.091 53.1028 87.9409 53.6002 87.9409H107.098L120.266 125.892L120.269 125.891Z" fill="#0078D4"/>
<path d="M91.935 18.1093L68.3187 87.9481L106.906 87.9395L120.142 125.891H89.9624C89.6503 125.888 89.3382 125.859 89.0303 125.804C88.7225 125.748 88.4203 125.666 88.1267 125.558C87.538 125.343 86.9904 125.028 86.5076 124.627L63.3018 102.911L56.8055 122.121C56.6373 122.601 56.4065 123.057 56.1186 123.476C55.5415 124.318 54.7522 124.992 53.831 125.429C53.3724 125.647 52.8868 125.802 52.3873 125.891H25.4544C24.5936 125.894 23.7441 125.688 22.9788 125.291C22.2133 124.894 21.5544 124.318 21.0577 123.611C20.5611 122.905 20.2413 122.09 20.1254 121.233C20.0099 120.377 20.1013 119.505 20.3919 118.691L52.9688 21.8506C53.1384 21.309 53.3935 20.7988 53.7241 20.3387C54.0534 19.8785 54.4553 19.4726 54.9114 19.1382C55.3674 18.8038 55.8748 18.5437 56.4122 18.3694C56.9495 18.195 57.5124 18.1064 58.0783 18.1093H91.9364H91.935Z" fill="url(#paint1_linear_604_31)"/>
<path d="M133.797 118.778C134.07 119.589 134.146 120.453 134.021 121.299C133.894 122.145 133.57 122.949 133.073 123.644C132.576 124.339 131.921 124.905 131.163 125.296C130.404 125.686 129.563 125.89 128.711 125.891H91.1098C91.9621 125.891 92.803 125.686 93.5626 125.296C94.3208 124.906 94.9765 124.339 95.4739 123.644C95.9713 122.95 96.2962 122.145 96.4231 121.299C96.5499 120.453 96.473 119.588 96.2007 118.778L63.5698 21.7749C63.2106 20.7063 62.5261 19.7777 61.6129 19.1196C61.1597 18.7924 60.658 18.5394 60.1264 18.3679C59.5947 18.1964 59.0389 18.1093 58.4816 18.1093H96.081C96.6397 18.1093 97.1941 18.1964 97.7272 18.3679C98.2588 18.5394 98.7605 18.7938 99.2151 19.1196C99.6684 19.4469 100.069 19.8428 100.401 20.2929C100.733 20.7431 100.992 21.2433 101.172 21.7749L133.803 118.778H133.797Z" fill="url(#paint2_linear_604_31)"/>
</g>
<defs>
<linearGradient id="paint0_linear_604_31" x1="70.3896" y1="26.0979" x2="35.1581" y2="129.893" gradientUnits="userSpaceOnUse">
<stop stop-color="#114A8B"/>
<stop offset="1" stop-color="#0669BC"/>
</linearGradient>
<linearGradient id="paint1_linear_604_31" x1="81.3212" y1="74.4874" x2="73.207" y2="77.2322" gradientUnits="userSpaceOnUse">
<stop stop-opacity="0.3"/>
<stop offset="0.1" stop-opacity="0.2"/>
<stop offset="0.3" stop-opacity="0.1"/>
<stop offset="0.6" stop-opacity="0.1"/>
<stop offset="1" stop-opacity="0"/>
</linearGradient>
<linearGradient id="paint2_linear_604_31" x1="76.8459" y1="23.0682" x2="115.51" y2="125.795" gradientUnits="userSpaceOnUse">
<stop stop-color="#3CCBF4"/>
<stop offset="1" stop-color="#2892DF"/>
</linearGradient>
<clipPath id="clip0_604_31">
<rect width="114.146" height="108" fill="white" transform="translate(20 18)"/>
</clipPath>
</defs>
</svg>
