<svg width="114" height="114" viewBox="0 0 114 114" fill="none" xmlns="http://www.w3.org/2000/svg">
<g clip-path="url(#clip0_602_14)">
<path d="M90.25 0H23.75C10.6353 0 0 10.6353 0 23.75V90.25C0 103.365 10.6353 114 23.75 114H90.25C103.37 114 114 103.365 114 90.25V23.75C114 10.6353 103.37 0 90.25 0ZM38 90.25H23.75V38H38V90.25ZM30.875 31.977C26.2865 31.977 22.5625 28.2245 22.5625 23.598C22.5625 18.9715 26.2865 15.219 30.875 15.219C35.4635 15.219 39.1875 18.9715 39.1875 23.598C39.1875 28.2245 35.4683 31.977 30.875 31.977ZM95 90.25H80.75V63.631C80.75 47.633 61.75 48.8442 61.75 63.631V90.25H47.5V38H61.75V46.3838C68.381 34.1003 95 33.193 95 58.1448V90.25Z" fill="#445D72"/>
</g>
<defs>
<clipPath id="clip0_602_14">
<rect width="114" height="114" fill="white"/>
</clipPath>
</defs>
</svg>
