<svg width="127" height="144" viewBox="0 0 127 144" fill="none" xmlns="http://www.w3.org/2000/svg">
<g clip-path="url(#clip0_604_18)">
<path d="M126.412 72.0129C126.412 63.6411 115.925 55.7073 99.8466 50.7873C103.557 34.4045 101.908 21.3704 94.6417 17.1974C92.9668 16.2185 91.0085 15.7549 88.8699 15.7549V21.4992C90.0552 21.4992 91.0085 21.731 91.8073 22.1689C95.3116 24.1781 96.8319 31.8286 95.6466 41.6686C95.3631 44.09 94.8993 46.6401 94.3325 49.2418C89.2822 48.0053 83.7681 47.0523 77.9705 46.434C74.492 41.6686 70.8846 37.3411 67.2515 33.5545C75.6515 25.7494 83.5362 21.4734 88.8957 21.4734V15.7291C81.8098 15.7291 72.5337 20.7779 63.1546 29.536C53.7754 20.8294 44.4994 15.8322 37.4135 15.8322V21.5765C42.7472 21.5765 50.6576 25.8267 59.0576 33.5802C55.4503 37.3668 51.8429 41.6686 48.4159 46.434C42.5926 47.0523 37.0785 48.0053 32.0282 49.2675C31.4356 46.6916 30.9975 44.193 30.6883 41.7974C29.4773 31.9574 30.9718 24.3069 34.4503 22.272C35.2233 21.8083 36.2282 21.6022 37.4135 21.6022V15.8579C35.2491 15.8579 33.2908 16.3216 31.5902 17.3004C24.3497 21.4734 22.7264 34.4818 26.4626 50.8131C10.4356 55.7588 0 63.6669 0 72.0129C0 80.3846 10.4871 88.3184 26.5656 93.2384C22.8552 109.621 24.5043 122.655 31.7705 126.828C33.4454 127.807 35.4037 128.271 37.5681 128.271C44.654 128.271 53.93 123.222 63.3092 114.464C72.6883 123.171 81.9644 128.168 89.0503 128.168C91.2147 128.168 93.173 127.704 94.8736 126.725C102.114 122.552 103.737 109.544 100.001 93.2127C115.977 88.2927 126.412 80.3588 126.412 72.0129ZM92.8637 54.8315C91.9104 58.1544 90.7251 61.5804 89.3852 65.0064C88.3288 62.9456 87.2208 60.8849 86.0098 58.8242C84.8245 56.7635 83.5619 54.7542 82.2994 52.7965C85.9582 53.3375 89.4883 54.0072 92.8637 54.8315ZM81.0625 82.265C79.0527 85.7425 76.9914 89.0397 74.8527 92.105C71.0135 92.4399 67.1227 92.6202 63.2061 92.6202C59.3153 92.6202 55.4245 92.4399 51.611 92.1308C49.4724 89.0654 47.3853 85.794 45.3754 82.3423C43.4172 78.9678 41.6392 75.5419 40.0159 72.0901C41.6135 68.6384 43.4172 65.1867 45.3497 61.8122C47.3595 58.3348 49.4208 55.0376 51.5595 51.9723C55.3987 51.6374 59.2895 51.4571 63.2061 51.4571C67.0969 51.4571 70.9877 51.6374 74.8012 51.9465C76.9398 55.0118 79.027 58.2832 81.0368 61.735C82.9951 65.1094 84.773 68.5354 86.3963 71.9871C84.773 75.4388 82.995 78.8906 81.0625 82.265ZM89.3852 78.9163C90.7766 82.368 91.9619 85.8198 92.9411 89.1685C89.5656 89.9928 86.0098 90.6883 82.3251 91.2292C83.5877 89.2457 84.8503 87.2108 86.0355 85.1243C87.2208 83.0635 88.3288 80.9771 89.3852 78.9163ZM63.2576 106.401C60.8613 103.928 58.465 101.172 56.0945 98.1584C58.4135 98.2614 60.784 98.3387 63.1803 98.3387C65.6024 98.3387 67.9987 98.2872 70.3435 98.1584C68.0245 101.172 65.6282 103.928 63.2576 106.401ZM44.0871 91.2292C40.4282 90.6883 36.8981 90.0185 33.5227 89.1942C34.4761 85.8713 35.6613 82.4453 37.0012 79.0194C38.0576 81.0801 39.1656 83.1408 40.3767 85.2016C41.5877 87.2623 42.8245 89.2715 44.0871 91.2292ZM63.1288 37.6244C65.5251 40.0973 67.9214 42.8535 70.292 45.8673C67.973 45.7643 65.6024 45.687 63.2061 45.687C60.784 45.687 58.3877 45.7385 56.0429 45.8673C58.3619 42.8535 60.7583 40.0973 63.1288 37.6244ZM44.0613 52.7965C42.7988 54.78 41.5362 56.815 40.3509 58.9015C39.1656 60.9622 38.0576 63.0229 37.0012 65.0837C35.6098 61.6319 34.4245 58.1802 33.4454 54.8315C36.8208 54.033 40.3767 53.3375 44.0613 52.7965ZM20.7423 85.047C11.6209 81.1574 5.72024 76.0571 5.72024 72.0129C5.72024 67.9687 11.6209 62.8426 20.7423 58.9787C22.9583 58.0257 25.3804 57.1756 27.8797 56.3771C29.3485 61.4259 31.281 66.6807 33.6773 72.0644C31.3067 77.4223 29.4 82.6514 27.957 87.6744C25.4061 86.8759 22.984 86.0001 20.7423 85.047ZM34.6049 121.857C31.1006 119.848 29.5804 112.197 30.7656 102.357C31.0491 99.9358 31.5129 97.3856 32.0797 94.784C37.13 96.0204 42.6442 96.9735 48.4417 97.5917C51.9202 102.357 55.5276 106.685 59.1607 110.471C50.7607 118.276 42.876 122.552 37.5165 122.552C36.357 122.527 35.3779 122.295 34.6049 121.857ZM95.7239 102.228C96.9349 112.068 95.4404 119.719 91.9619 121.754C91.1889 122.217 90.184 122.424 88.9987 122.424C83.665 122.424 75.7546 118.173 67.3546 110.42C70.9619 106.633 74.5693 102.331 77.9963 97.566C83.8196 96.9477 89.3337 95.9946 94.384 94.7324C94.9766 97.3341 95.4404 99.8328 95.7239 102.228ZM105.644 85.047C103.428 86.0001 101.006 86.8501 98.5067 87.6487C97.038 82.5999 95.1055 77.345 92.7092 71.9614C95.0797 66.6034 96.9865 61.3743 98.4294 56.3513C100.98 57.1498 103.402 58.0257 105.67 58.9787C114.791 62.8684 120.692 67.9687 120.692 72.0129C120.666 76.0571 114.766 81.1831 105.644 85.047Z" fill="#61DAFB"/>
<path d="M63.1804 83.7848C69.6838 83.7848 74.9558 78.5143 74.9558 72.0129C74.9558 65.5114 69.6838 60.2409 63.1804 60.2409C56.677 60.2409 51.4049 65.5114 51.4049 72.0129C51.4049 78.5143 56.677 83.7848 63.1804 83.7848Z" fill="#61DAFB"/>
</g>
<defs>
<clipPath id="clip0_604_18">
<rect width="126.412" height="144" fill="white"/>
</clipPath>
</defs>
</svg>
