<svg width="144" height="144" viewBox="0 0 144 144" fill="none" xmlns="http://www.w3.org/2000/svg">
<path fill-rule="evenodd" clip-rule="evenodd" d="M126 18H18V126H126V18ZM82.47 66H42.681V75.792H56.952V120H68.259V75.792H82.47V66ZM106.161 74.676C112.221 74.676 117.582 78.252 117.582 78.252L117.978 67.725C117.978 67.725 86.004 58.989 86.004 81.132C86.004 90.8751 93.8573 94.7898 100.168 97.9355C104.406 100.048 107.949 101.814 107.949 104.766C107.949 104.787 107.949 104.812 107.95 104.84C107.959 105.762 108.01 110.526 100.5 110.526C92.757 110.526 86.301 105.66 86.301 105.66V117.474C86.301 117.474 120.063 128.397 120.063 103.77C120.063 94.393 112.445 90.7895 106.146 87.8096C101.705 85.7091 97.92 83.9185 97.92 80.634C97.92 77.556 100.101 74.676 106.161 74.676Z" fill="#445D72"/>
</svg>
